<svg version="1" xmlns="http://www.w3.org/2000/svg" width="1365.333" height="1365.333" viewBox="0 0 1024.000000 1024.000000"><path d="M498.5 101.6c-1.1.2-9 .8-17.5 1.4-18.9 1.3-29.3 2.4-30.8 3.4-.8.4-1.2 3.6-1.2 8.2v7.4l30.8-.2 30.7-.3.3-10.3.3-10.2-5.3.1c-2.9.1-6.2.3-7.3.5zM514.2 111.1l.3 10.4 30.3.3 30.2.2v-7.4c0-4.5-.5-7.8-1.1-8.2-1.5-.9-12.9-2.2-29.4-3.4-7.1-.5-17-1.2-21.8-1.6l-8.8-.7.3 10.4zM437.5 108.1c-2.2.5-6.2 1.4-9 2-15 3.1-33.5 7.8-39 10-1.1.4-2.7 1-3.5 1.2-.8.3 12.6.6 29.8.6l31.2.1v-15l-2.7.1c-1.6.1-4.6.5-6.8 1zM577 114.5v7.5l31.3-.1c17.1 0 30.5-.3 29.7-.6-.8-.2-2.4-.8-3.5-1.3-4.9-1.9-24.7-7-39-9.9-2.7-.6-7.1-1.5-9.7-2.1-8.9-1.9-8.8-2-8.8 6.5zM372 126c-1.1.7-.4 1 2.8 1.1 2.3.1 4.7.2 5.4.3.6.1 1.3-.5 1.6-1.2.5-1.5-7.5-1.7-9.8-.2zM386.2 126.1c.3.8 30.5 1.3 59.1.9.4 0 .7-.5.7-1 0-.6-10.7-1-30.1-1-20.7 0-30 .3-29.7 1.1zM485.5 126c-4.8.5-3.2.7 8.3 1.1 14.9.4 16.6.3 15.6-1.2-.6-1-14.3-.9-23.9.1zM515 126.6c0 1.1.5 1.4 1.6 1 .9-.3 7.7-.7 15.2-.8 11.6-.1 12.7-.2 7.2-.8-3.6-.4-10.4-.8-15.2-.9-7.5-.1-8.8.1-8.8 1.5zM578 126c0 .9 56.5 2 59 1.2.6-.2 1-.8 1-1.3s-12.5-.9-30-.9c-18.7 0-30 .4-30 1zM642.3 126.2c.2.7.9 1.3 1.5 1.2.7-.1 3.1-.2 5.5-.3 3.1-.1 3.8-.4 2.7-1.1-2.3-1.5-10.3-1.3-9.7.2zM451.8 126.7c.7.3 1.6.2 1.9-.1.4-.3-.2-.6-1.3-.5-1.1 0-1.4.3-.6.6zM360 130.2c-1.4.7-4.7 2.2-7.4 3.4l-4.9 2.1.2 10.9c.1 5.9.4 11.1.7 11.5.4.7 3.1-.3 15.2-5.7 2.9-1.3 5.8-2.4 6.6-2.4.7 0 1.6-.3 1.9-.7.4-.4 2.9-1.4 5.5-2.3l4.7-1.6v-15.9l-10-.2c-5.8-.1-11 .3-12.5.9zM385.7 129.7c-.9.8-.9 14.3 0 14.3.4 0 3.2-.8 6.2-1.9 9.6-3.2 24-7.2 32.6-9.1 17.9-3.9 17.9-3.9-11.1-3.9-14.9-.1-27.4.2-27.7.6zM452 129.9l-2.5.7-.3 28.2c-.1 17.7-.6 28.2-1.2 28.2s-1-10.3-1-27.9c0-16.6-.4-28.2-.9-28.6-.6-.3-3.2-.1-5.8.5-2.6.6-6.6 1.5-8.8 2-10.4 2.4-26.4 6.4-30.5 7.6-2.5.8-6.1 1.9-8 2.5-8.6 2.6-8 .7-8 23.6 0 12.9-.4 20.3-1 20.3s-1-7.3-1-20v-20l-2.7.7c-3 .7-17 6.3-26.5 10.6l-5.7 2.6-.1 90.7c0 85.2.1 90.8 1.7 92 1.5 1 17.3 1.3 81.5 1.3l79.7.1v-32.7c.1-21.2-.3-33.1-1-33.9-.7-.8-.7-1.4.1-1.9 1.4-.9 1.3-17.8-.2-19.3-.9-.9-.9-1.5 0-2.4 1.7-1.7 1.7-59.9 0-61.6-.8-.8-.8-1.5 0-2.5.9-1 1.1-9.9.9-31.3l-.2-29.9-28-.2c-15.4 0-29.1.2-30.5.6zm-66 60.7c1.1 1.2 1 1.8-.3 3.2-1.6 1.5-1.8 1.5-3.4 0-1.3-1.4-1.4-2-.3-3.2.7-.9 1.6-1.6 2-1.6.4 0 1.3.7 2 1.6zm64 0c1.1 1.2 1 1.8-.3 3.2-1.6 1.5-1.8 1.5-3.4 0-1.3-1.4-1.4-2-.3-3.2.7-.9 1.6-1.6 2-1.6.4 0 1.3.7 2 1.6zm-88.2 2.1c-1 .2-2.6.2-3.5 0-1-.3-.2-.5 1.7-.5s2.7.2 1.8.5zM449 213c0 10.7-.4 17-1 17s-1-6.1-1-16.3c0-14.4.3-17.7 1.7-17.7.2 0 .3 7.6.3 17zm-64.3-6.3c-.2 2.1-.4.6-.4-3.2 0-3.9.2-5.5.4-3.8.2 1.8.2 5 0 7zm1 51c-1.6 1.6-1.8 1.6-3.4 0-1.7-1.7-1.7-1.9.2-3.3 1.7-1.2 2.1-1.2 3.4.1 1.4 1.3 1.3 1.7-.2 3.2zm64 0c-1.6 1.6-1.8 1.6-3.4 0-1.7-1.7-1.7-1.9.2-3.3 1.7-1.2 2.1-1.2 3.4.1 1.4 1.3 1.3 1.7-.2 3.2zm.3 28.3c0 1.2-2.8 2.5-3.6 1.7-.9-.9.6-2.7 2.2-2.7.8 0 1.4.5 1.4 1zm-64.5 29c-.3.5-1.6 1.5-2.8 2.1-2.2 1.2-2.2 1.2-.3-1 1.9-2.1 4.3-3 3.1-1.1zm-5.9 4.8c-.8 1.3-4.6 2.2-4.6 1.1 0-1 4.2-3 4.9-2.3.1.1 0 .7-.3 1.2zm6.4-.4c0 .8-.5 1.8-1.1 2.2-1.4.8-3.3-1.1-2.5-2.5 1-1.6 3.6-1.3 3.6.3zm64 .6c0 1.3-.7 2-2 2-1.9 0-2.7-2-1.3-3.3 1.3-1.4 3.3-.6 3.3 1.3zM514.5 130.2c-.3.7-.4 49.2-.2 107.8l.2 106.5 79.8.2c77.5.3 79.9.2 81.9-1.7 1.2-1.1 1.8-2.5 1.4-3.5-.3-.9-.6-41.1-.6-89.3 0-48.2-.4-88.2-.8-88.8-.8-1.1-7.7-4.4-17.9-8.5-1.3-.5-3.3-1.3-4.5-1.8-5.7-2.3-10.9-4.1-11.8-4.1-.6 0-1 7.6-1 20s-.4 20-1 20-1.1-8-1.2-20.7l-.3-20.7-5-1.7c-9.6-3.2-16-5.1-19.5-6-1.9-.4-5.5-1.3-8-1.9-10.9-2.7-23.2-5.2-26.5-5.4-1.9-.1-2 .6-2.3 28.1-.1 18.3-.6 28.3-1.2 28.3-.7 0-1-9.8-1-28.2l.1-28.3-2.3-.7c-1.3-.3-14.8-.6-30.1-.7-21.4-.1-27.9.2-28.2 1.1zm63.5 60.4c1.1 1.2 1 1.8-.3 3.2-1.6 1.5-1.8 1.5-3.4 0-1.3-1.4-1.4-2-.3-3.2.7-.9 1.6-1.6 2-1.6.4 0 1.3.7 2 1.6zm64 0c1.1 1.2 1 1.8-.3 3.2-1.6 1.5-1.8 1.5-3.4 0-1.3-1.4-1.4-2-.3-3.2.7-.9 1.6-1.6 2-1.6.4 0 1.3.7 2 1.6zm25.8 2.1c-1 .2-2.8.2-4 0-1.3-.2-.5-.4 1.7-.4 2.2-.1 3.2.1 2.3.4zm-91.1 14c-.2 2.1-.4.6-.4-3.2 0-3.9.2-5.5.4-3.8.2 1.8.2 5 0 7zm64.3 6.8c0 10.3-.4 16.5-1 16.5s-1-6.2-1-16.5.4-16.5 1-16.5 1 6.2 1 16.5zm-63 41.1c1.1 1.2 1 1.8-.3 3.2-1.6 1.5-1.8 1.5-3.4 0-1.3-1.4-1.4-2-.3-3.2.7-.9 1.6-1.6 2-1.6.4 0 1.3.7 2 1.6zm64 0c1.1 1.2 1 1.8-.3 3.2-1.6 1.5-1.8 1.5-3.4 0-1.3-1.4-1.4-2-.3-3.2.7-.9 1.6-1.6 2-1.6.4 0 1.3.7 2 1.6zm-98.7 25.1c-.7.2-1.9.2-2.5 0-.7-.3-.2-.5 1.2-.5s1.9.2 1.3.5zm12.2 1.3l2 .9h-2c-1.1 0-2.7-.4-3.5-.9-1.3-.9-1.3-1 0-.9.8 0 2.4.4 3.5.9zm10 2l2 .9h-2c-1.1 0-2.7-.4-3.5-.9-1.3-.9-1.3-1 0-.9.8 0 2.4.4 3.5.9zm13.5 3.3l3.5 1.5-3.2.1c-1.7.1-3.5-.4-3.8-.9-.3-.6-1.5-1-2.5-1s-2.2-.4-2.5-1c-.9-1.4 4.2-.6 8.5 1.3zm8 2.7c1.3.9 1.3 1 0 1-.8 0-2.2-.5-3-1-1.3-.9-1.3-1 0-1 .8 0 2.2.5 3 1zm6 2c1.3.9 1.3 1 0 1-.8 0-2.2-.5-3-1-1.3-.9-1.3-1 0-1 .8 0 2.2.5 3 1zm5.5 2c.3.5-.1 1-.9 1s-1.8-.5-2.1-1c-.3-.6.1-1 .9-1s1.8.4 2.1 1zm5 2c.3.5-.1 1-.9 1s-1.8-.5-2.1-1c-.3-.6.1-1 .9-1s1.8.4 2.1 1zm13.1 6.1c5.7 2.8 10.7 5.6 11 6.1.4.6.3.9-.2.6-8.4-3.9-22.4-11.1-22.4-11.4 0-.9 1.6-.2 11.6 4.7zm17.2 9.4c2 1.4 4 2.5 4.3 2.5 1 0 10.9 6.6 14 9.3 1.4 1.2 6.4 5.3 11.2 9.2 4.7 3.8 8.8 7.6 9.1 8.3.3.7-3.3-2-8.2-6.1-4.8-4-14.7-11.3-21.9-16.1-7.3-4.9-13.3-9-13.3-9.2 0-.9 1.3-.3 4.8 2.1zm-56 9.8c.2 1-.3 1.7-1.2 1.7-1.8 0-2.9-1.6-2.1-3.1.9-1.4 2.9-.6 3.3 1.4zm64.2-.3c0 1.3-.7 2-2 2-1.9 0-2.7-2-1.3-3.3 1.3-1.4 3.3-.6 3.3 1.3zM591.5 130.6c3.3.8 7.6 1.9 9.5 2.4 1.9.5 5.8 1.4 8.5 2.1 5.9 1.3 8.5 2.1 18.8 5.4 11.1 3.6 10.8 3.7 10.5-4.3l-.3-6.7-26.5-.2c-25.2-.2-26.2-.1-20.5 1.3zM641.4 130.4c-.3.7-.4 4.1-.2 7.6.3 7.2-.5 6.4 12.8 11.5 10.2 3.9 15.5 6.1 18.2 7.6 4.4 2.3 4.8 1.5 4.8-10.1v-11l-4.2-1.9c-10.6-4.8-12.1-5.1-21.5-5.1-6.9 0-9.5.3-9.9 1.4zM332.3 142.6l-11.3 5.5v25l10.3-5.2c14.6-7.4 13.7-6.2 13.7-19.6 0-6.2-.3-11.3-.7-11.3-.5 0-5.9 2.6-12 5.6zM680 147.7c0 7.2.4 11.5 1.3 12.5 1 1.3 20 11.8 21.3 11.8.2 0 .4-5.4.4-11.9v-11.9l-10.7-5.3c-6-2.8-11.1-5.4-11.5-5.6-.5-.2-.8 4.5-.8 10.4z"/><path d="M313 152.6c-17.3 9.8-35.1 21.4-47.3 30.7-5.7 4.4-7.6 6.4-7.2 7.7.8 2.4-2 4.6-3.9 3.1-1.1-.9-3 .2-9.2 5.5-4.4 3.6-11.2 9.8-15.2 13.7l-7.3 7 58.7 58.7c32.3 32.3 59.1 59.5 59.6 60.4.5.9 1.5 1.6 2.3 1.6 1.3 0 1.5-10.3 1.4-73.5 0-45.4-.4-73.7-1-74-.6-.4-.5-1.3.1-2.5 1.4-2.6 1.3-25.3-.1-26.7-.9-.9-3.6.2-10.8 3.9-5.3 2.8-10.2 5.5-10.8 6.1-.8.5-1.3 3.3-1.3 6.8 0 3.3-.4 5.9-1 5.9-.5 0-1-2.3-1-5 0-2.8-.5-5-1-5-1.6 0-22 13.1-22 14.1 0 .5-1.6 1.5-3.6 2.4-3.7 1.5-19.9 13.4-29.6 21.8-5.6 4.7-5.8 5.1-5.8 9.8 0 2.7-.4 4.9-1 4.9-.5 0-1-1.6-1-3.5 0-3.3-1.2-4.6-2.4-2.6-.3.5-3.4 3.2-6.8 6.1-5.9 4.9-5.8 4.7 1.5-2.2l7.7-7.5v-11.6c0-14.8 1.8-15.7 2.2-1.1l.3 10.7 6-5c3.3-2.8 10.3-8.3 15.5-12.3 5.2-3.9 9.9-7.8 10.3-8.6.4-.8 1.3-1.4 2-1.4.7-.1 7.1-3.8 14.2-8.3l13-8.3.3-12.2c.1-6.7-.1-12.2-.5-12.2-.4.1-2.8 1.2-5.3 2.6zm9 38c1.1 1.2 1 1.8-.3 3.2-1.6 1.5-1.8 1.5-3.4 0-1.3-1.4-1.4-2-.3-3.2.7-.9 1.6-1.6 2-1.6.4 0 1.3.7 2 1.6zm-1.3 16.1c-.2 2.1-.4.6-.4-3.2 0-3.9.2-5.5.4-3.8.2 1.8.2 5 0 7zm0 8.5c-.3.8-.6.5-.6-.6-.1-1.1.2-1.7.5-1.3.3.3.4 1.2.1 1.9zm1 42.5c-1.6 1.6-1.8 1.6-3.4 0-1.7-1.7-1.7-1.9.2-3.3 1.7-1.2 2.1-1.2 3.4.1 1.4 1.3 1.3 1.7-.2 3.2zM705 161.7v11.8l3.5 2.2c1.9 1.3 3.7 2.3 4 2.3.3 0 4.5 2.6 9.3 5.9 4.8 3.2 9.7 6.1 10.8 6.5 1.2.4 3.5 1.9 5.1 3.4 3.4 3.1 29 23.2 29.6 23.2.2 0 4.4 4 9.3 9 4.9 4.9 9.6 9 10.4 9 .9 0 4.6-3.1 8.4-6.9l6.8-6.9-7.8-7.5c-4.4-4.1-11.4-10.5-15.8-14.1-6.2-5.3-8.1-6.4-9.2-5.5-1.9 1.5-4.7-.7-3.9-3.1.6-1.9-8.2-9.1-24-19.7-13-8.7-34.3-21.3-35.9-21.3-.4 0-.6 5.3-.6 11.7zm64 42.8c0 4.3-.4 7.5-1 7.5s-1-3.2-1-7.5.4-7.5 1-7.5 1 3.2 1 7.5z"/><path d="M680.6 164.8c-.8 1.4-.6 176.1.3 176.6.4.3 5.4-4.3 11-10.2 5.6-5.9 10.9-11.4 11.8-12.2 26.7-25.9 61.3-60.9 61.3-62.1 0-2 2-3.9 4-3.9 1.8 0 16-13.9 16-15.7 0-1.6-15.1-15.4-16.2-14.7-.4.3-.8.1-.8-.4 0-2.7-31.3-27.5-36.3-28.7-1.5-.4-2.7-1.2-2.7-1.9 0-.6-2.8-2.9-6.3-5-3.4-2.1-8.6-5.4-11.4-7.2-2.9-1.9-5.5-3.4-5.8-3.4-.3 0-.5 2.5-.5 5.5s-.4 5.5-1 5.5-1-2.6-1-5.8c0-6.3-.7-7.4-6.5-10.2-1.6-.8-5.2-2.7-7.8-4.2-4.9-2.9-7.2-3.4-8.1-2zm25.4 25.8c1.1 1.2 1 1.8-.3 3.2-1.6 1.5-1.8 1.5-3.4 0-1.3-1.4-1.4-2-.3-3.2.7-.9 1.6-1.6 2-1.6.4 0 1.3.7 2 1.6zm-1.3 16.1c-.2 2.1-.4.6-.4-3.2 0-3.9.2-5.5.4-3.8.2 1.8.2 5 0 7zm0 8.5c-.3.8-.6.5-.6-.6-.1-1.1.2-1.7.5-1.3.3.3.4 1.2.1 1.9zm1.3 39.4c1.1 1.2 1 1.8-.3 3.2-1.6 1.5-1.8 1.5-3.4 0-1.3-1.4-1.4-2-.3-3.2.7-.9 1.6-1.6 2-1.6.4 0 1.3.7 2 1.6zM212.9 230.4c-16 17.1-20.2 22.5-18.9 24.1 1.7 2-.5 4.8-3.1 4-1.3-.5-3 .9-6.4 5.2-6.1 7.7-24 34.8-29.7 44.8-6.1 10.8-17.8 34.1-17.8 35.4 0 1.5 23.6 1.5 24.5.1.5-.8 1.1-.8 1.9-.1.8.7 30.6 1.1 89.4 1.1 75.6-.1 88.2-.3 88.2-1.5 0-.8-.7-1.8-1.6-2.3-.9-.5-28-27.3-60.3-59.6-32.3-32.2-58.9-58.5-59.1-58.5-.3.1-3.5 3.4-7.1 7.3zm16.9 15.7c-2.9 3.3-5.7 6.8-6.3 7.7-.5 1-3 3.5-5.5 5.7s-3.5 2.8-2.2 1.4c1.2-1.4 2.2-2.8 2.2-3 0-.6 16.3-17.9 16.8-17.9.2 0-2 2.7-5 6.1zM213 265.4c0 .2-.8 1-1.7 1.7-1.6 1.3-1.7 1.2-.4-.4 1.3-1.6 2.1-2.1 2.1-1.3zm-19.9 27c-1.1 2.8-3.4 3.7-2.4.8.8-2.2 2.5-4.4 3-3.9.2.2-.1 1.6-.6 3.1zm-18.2 28.7c-1.9 1.2-2.4.2-.8-1.7.9-1.1 1.4-1.3 1.7-.4.3.7-.2 1.6-.9 2.1zm19.1-1.7c0 .8-.5 1.8-1.1 2.2-1.4.8-3.3-1.1-2.5-2.5 1-1.6 3.6-1.3 3.6.3zm64 0c0 .8-.5 1.8-1.1 2.2-1.4.8-3.3-1.1-2.5-2.5 1-1.6 3.6-1.3 3.6.3zM796.7 229.8c-3.7 3.7-6.7 7.4-6.7 8.2 0 .8 4 5.6 8.8 10.5 4.8 5 12.3 13.7 16.7 19.4 4.4 5.7 10.4 13.3 13.3 16.8 2.8 3.6 5.2 7 5.2 7.5s2.6 4.8 5.8 9.6c3.1 4.8 6.4 9.9 7.1 11.4.8 1.5 2.2 3.7 3.3 4.7 1 1.1 1.8 2.7 1.8 3.5 0 .8.5 1.8 1 2.1.6.3 1 1.2 1 1.8-.1 1.8-3.7-3.1-7.1-9.7-3.5-6.8-10-16.7-14.1-21.4-1.5-1.8-2.8-3.7-2.8-4.2 0-1.7-17.1-23.7-25.8-33.2-12.4-13.5-15.6-16.8-16.5-16.8-1.4 0-103.7 102.3-103.7 103.7 0 1.7 175.7 1.8 177.7.1 1-.8 1.7-.8 2.5 0 1.6 1.6 22.8 1.7 22.8.1 0-1.3-11.8-24.6-17.8-35.4-5.6-9.9-23.6-37-29.8-44.8-2.7-3.5-5.1-5.6-5.9-5.3-.7.2-2.1-.1-3.1-.9-1.5-1.1-1.6-1.5-.5-2.9 1.2-1.4.2-2.9-7.2-11.3-4.7-5.4-11-12.2-13.9-15l-5.4-5.3-6.7 6.8zM769 267.1c0 .6-.4.7-1 .4-.5-.3-1-1.1-1-1.6 0-.6.5-.7 1-.4.6.3 1 1.1 1 1.6zm.8 53.2c.2 1-.3 1.7-1.2 1.7-1.8 0-2.9-1.6-2.1-3.1.9-1.4 2.9-.6 3.3 1.4zm64 0c.2 1-.3 1.7-1.2 1.7-1.8 0-2.9-1.6-2.1-3.1.9-1.4 2.9-.6 3.3 1.4zm22.2 8.8c0 .6-.4.7-1 .4-.5-.3-1-1.1-1-1.6 0-.6.5-.7 1-.4.6.3 1 1.1 1 1.6zm2 4c0 .6-.4.7-1 .4-.5-.3-1-1.1-1-1.6 0-.6.5-.7 1-.4.6.3 1 1.1 1 1.6zM132.7 353.8c-1.4 3.1-2.8 6.8-3.2 8.2-.4 1.4-1.5 4.4-2.6 6.7-1.1 2.4-1.9 6.5-1.9 9.3 0 4.6.2 5 2.3 4.7 1.4-.1 2.2.3 2.2 1.3s-.8 1.4-2.3 1.3l-2.3-.3.5 39.3c.2 21.5.3 43.7.3 49.2-.1 5.5-.2 16.1-.2 23.5v13.5h45l.2-4.5c.9-16.5 7.5-34.9 17.9-49.8 2.4-3.5 4.4-6.5 4.4-6.7 0-.3-.7-.5-1.6-.5-.8 0-1.2-.5-.9-1.1.4-.6 1.4-.8 2.2-.5.9.4 4-1.7 8.1-5.5 14.8-13.6 31.4-22.1 50.7-26 8.7-1.8 28.5-1.5 38 .6 17.5 3.7 33.9 12.4 47.5 25.2l8 7.5v-48.8c-.1-39.2-.3-49.2-1.4-50.7-1.3-1.6-7.1-1.7-104.8-1.7l-103.6.1-2.5 5.7zm188.1 23.7c-.6 1.4-1.3 2.3-1.6 2.1-.7-.7.9-4.6 1.8-4.6.5 0 .4 1.1-.2 2.5zm-127.2 5.6c1 1.7-1.3 3.6-2.7 2.2-1.2-1.2-.4-3.3 1.1-3.3.5 0 1.2.5 1.6 1.1zm64 0c1 1.7-1.3 3.6-2.7 2.2-1.2-1.2-.4-3.3 1.1-3.3.5 0 1.2.5 1.6 1.1zm64 0c1 1.7-1.3 3.6-2.7 2.2-1.2-1.2-.4-3.3 1.1-3.3.5 0 1.2.5 1.6 1.1zM146 384c0 .5-.5 1-1.1 1-.5 0-.7-.5-.4-1 .3-.6.8-1 1.1-1 .2 0 .4.4.4 1zm170 .5c-.7.9-1.5 1.3-1.7 1.1-.7-.7.7-2.6 1.9-2.6.6 0 .6.6-.2 1.5zm-186 63.4c0 1.1-.4 2.2-.9 2.5-1.2.8-3.4-2.1-2.6-3.4 1.1-1.7 3.5-1.1 3.5.9zM351 348.4c0 .2 9.9 10.2 21.9 22.3 12 12 22.3 22.2 22.8 22.8.6.5 11.3 11.5 24 24.4l23 23.3 7.3-5.6c9.2-7.2 17.7-11.9 27.8-15.6 8.8-3.2 22.2-6 28.8-6h4.4l-.3-32.8-.2-32.7-79.7-.3c-43.9-.2-79.8-.1-79.8.2zm99 10c0 .2-.7.9-1.5 1.6-1.2 1-1.5 1-1.5-.4 0-.9.7-1.6 1.5-1.6s1.5.2 1.5.4zm-41.5 25.5c-.3.6-1.4 1.1-2.3 1.1-1.5-.1-1.5-.2.2-1.5 2.1-1.6 3.2-1.3 2.1.4zm41.1-.8c1 1.7-1.3 3.6-2.7 2.2-1.2-1.2-.4-3.3 1.1-3.3.5 0 1.2.5 1.6 1.1zM514 381.1l.1 32.9h4.2c6.4 0 21.3 3.4 30 6.8 9.4 3.6 19.1 9.3 27.3 16l6.1 5 23.2-23.2c12.7-12.7 23.1-23.7 23.1-24.4 0-.6.6-1.2 1.3-1.2 1.6 0 8.7-7.1 8.7-8.8 0-.6 1-1.6 2.3-2.3 2.5-1.3 33.7-32 33.7-33.2 0-.4-36-.7-80-.6l-80 .1v32.9zm64-22c0 .5-.7.9-1.5.9s-1.5-.7-1.5-1.5c0-.9.6-1.2 1.5-.9.8.4 1.5 1 1.5 1.5zm8.5 3.9c.3.5.2 1-.4 1-.5 0-1.3-.5-1.6-1-.3-.6-.2-1 .4-1 .5 0 1.3.4 1.6 1zm4 2c.3.5.2 1-.4 1-.5 0-1.3-.5-1.6-1-.3-.6-.2-1 .4-1 .5 0 1.3.4 1.6 1zm7 4c.3.5.2 1-.4 1-.5 0-1.3-.5-1.6-1-.3-.6-.2-1 .4-1 .5 0 1.3.4 1.6 1zm23.7 16.8c2.4 2.8-4.4-1.5-9.2-5.9l-4.5-4.1 6.2 4.3c3.5 2.3 6.9 4.9 7.5 5.7zm-43.6-2.7c1 1.7-1.3 3.6-2.7 2.2-1.2-1.2-.4-3.3 1.1-3.3.5 0 1.2.5 1.6 1.1zm47.9 6.9c1 1.1 1.6 2 1.3 2-.3 0-1.3-.9-2.3-2-1-1.1-1.6-2-1.3-2 .3 0 1.3.9 2.3 2zM681.3 349.5c-.9 1-1.2 13.1-1.3 49.5v48.2l6.3-5.8c8.5-7.8 21.3-16 31.1-20 36.3-14.8 79.9-6.2 106.5 21 4.4 4.4 5.9 5.4 7.8 5 2.4-.6 3 .5 1.3 2.2-.6.6.3 2.7 2.6 5.9 8.9 12.4 15.6 30 17.6 46.1l1.1 9.5 22.7-.1 22.7-.1-.1-68.7c-.1-68.4-.1-68.7-2.3-73.2-1.2-2.5-2.4-5.6-2.8-7-.4-1.4-1.8-5.1-3.2-8.2l-2.6-5.8-103.1.1c-86.9 0-103.3.2-104.3 1.4zm8.5 7.8c2.3 2.9 5.3 6.5 6.7 8.2 6.4 7.7 7.7 9.4 11.5 15.1 4.3 6.6 5.2 9.1 2 5.6-1.1-1.2-2-2.5-2-3 0-.4-.8-1.7-1.9-2.8-1-1.1-2.4-3.1-3.1-4.5-1.6-2.9-11.9-15.9-16.9-21.2-2-2.1-2.9-3.5-2.1-3.2.8.3 3.4 3 5.8 5.8zm15.8 25.8c1 1.7-1.3 3.6-2.7 2.2-1.2-1.2-.4-3.3 1.1-3.3.5 0 1.2.5 1.6 1.1zm64 0c1 1.7-1.3 3.6-2.7 2.2-1.2-1.2-.4-3.3 1.1-3.3.5 0 1.2.5 1.6 1.1zm64 0c1 1.7-1.3 3.6-2.7 2.2-1.2-1.2-.4-3.3 1.1-3.3.5 0 1.2.5 1.6 1.1zm46.8.4c.3.9 0 1.5-.9 1.5-.8 0-1.5-.7-1.5-1.5s.4-1.5.9-1.5 1.1.7 1.5 1.5zm17.2-.4c1 1.7-1.3 3.6-2.7 2.2-1.2-1.2-.4-3.3 1.1-3.3.5 0 1.2.5 1.6 1.1zM717.5 396c.3.5.1 1-.4 1-.6 0-1.1-.5-1.1-1 0-.6.2-1 .4-1 .3 0 .8.4 1.1 1zM897 446.5c.4.5.4 3 0 5.5-.6 3.6-.8 3.9-.9 1.4 0-1.6-.5-3.4-1-4-.6-.5-.7-2.9-.3-5.4.6-3.9.7-4.1 1-1.5.2 1.6.7 3.4 1.2 4zM348 351.7c0 .5 0 23.4-.1 51.1l-.1 50.3 3.5 5.3c8.5 12.8 13.9 27.6 15.9 43.1l1.1 9.4 22.4.1H413v-3.8c0-17.4 9.4-41.1 22.9-57.9l5.3-6.6-23.3-23c-12.9-12.7-23.7-23.3-24.1-23.6-.3-.3-10.5-10.6-22.5-22.9-12.1-12.2-22.2-22.2-22.6-22.2-.4 0-.7.3-.7.7zm36.1 56.6c-.8.8-1.1.7-1.1-.4 0-2 1.3-3.4 1.8-1.9.3.7-.1 1.7-.7 2.3zm1.5 38.8c1 1.7-1.3 3.6-2.7 2.2-1.2-1.2-.4-3.3 1.1-3.3.5 0 1.2.5 1.6 1.1zm-25.6.9c0 .5-.5 1-1.1 1-.5 0-.7-.5-.4-1 .3-.6.8-1 1.1-1 .2 0 .4.4.4 1zM653.7 372.9c-11.9 12-21.7 22.4-21.7 23 0 .6-.6 1.1-1.2 1.1-.7 0-11.7 10.4-24.4 23.1l-23.2 23.1 5.2 6.4c13.2 16.5 22.6 40.3 22.6 57.6v3.8h22.4l22.3-.1.7-7.9c1.2-15.2 7.7-32.8 16.9-46.2l4.6-6.7-.2-49.2c-.1-32.8-.5-49.3-1.2-49.6-.6-.2-10.8 9.5-22.8 21.6zm-11.8 33.9c2.1 3.2 2.1 3.3.2 2.2-1.1-.6-2.6-2-3.2-3.3-.6-1.2-2.3-3.5-3.8-5.2l-2.6-2.9 3.6 2.9c2 1.7 4.6 4.5 5.8 6.3zm-.3 40.3c1 1.7-1.3 3.6-2.7 2.2-1.2-1.2-.4-3.3 1.1-3.3.5 0 1.2.5 1.6 1.1zm24.8.4c.3.8.1 1.5-.4 1.5-.6 0-1-.7-1-1.5s.2-1.5.4-1.5.6.7 1 1.5zM119.1 391.2c-4.4 13.7-12.6 49-12.9 55.8-.1.8-.8 6.1-1.6 11.6-1.5 9.7-3.1 26.5-4.3 44.1l-.6 8.3h11.2c8.2 0 11.1-.3 11.2-1.3.2-5.5-.2-124.2-.5-124.5-.2-.2-1.3 2.5-2.5 6zM902.6 397c-.4 5.8-.5 33.7-.4 62l.3 51.5 10.9.3 10.9.3-.6-8.3c-1.2-17.7-2.8-34.5-4.3-44.2-.8-5.5-1.5-10.8-1.6-11.6-.3-6.6-9.4-45.9-13.1-56.5l-1.4-4-.7 10.5zM100.3 522.7c2.9 42.6 6.6 67.2 15.1 98.8 3.4 12.8 5.6 18.6 6.7 17.9.6-.3.8-27.1.7-62.7l-.3-62.2-11.4-.3-11.3-.3.5 8.8zM125.2 582.9l-.3 68.9 2.7 6.9c4 10.3 6.7 16.7 7.7 18 1.4 1.9 207 1.9 208.5 0 .8-.9 1.2-16.8 1.4-50.5.2-27.1.1-49.2-.1-49.2s-3.9 3.4-8.3 7.5c-19.1 18-41.4 26.7-68.3 26.7-10.7-.1-14.8-.5-23-2.6-37.3-9.6-65.1-38.5-73-75.9-.8-3.8-1.5-8.8-1.5-11.2 0-8 1.4-7.5-23.4-7.5h-22.2l-.2 68.9zm4.8-6.3c0 1.6-1.6 1.9-2.5.4-.8-1.3.4-3.2 1.6-2.5.5.4.9 1.3.9 2.1zm-1 63.4c0 .5-.4 1-1 1-.5 0-1-.5-1-1 0-.6.5-1 1-1 .6 0 1 .4 1 1zm64 0c0 .5-.4 1-1 1-.5 0-1-.5-1-1 0-.6.5-1 1-1 .6 0 1 .4 1 1zm64 0c0 .5-.4 1-1 1-.5 0-1-.5-1-1 0-.6.5-1 1-1 .6 0 1 .4 1 1zm64 0c0 .5-.4 1-1 1-.5 0-1-.5-1-1 0-.6.5-1 1-1 .6 0 1 .4 1 1zM367.2 523.9c-1.9 16.2-7.4 31.1-16.3 44.3l-3.9 5.7v50c.1 40.3.3 50.1 1.3 50.1.8 0 8.5-7.3 17.3-16.2 8.7-8.9 18.5-18.6 21.7-21.6 3.1-3 5.7-6.1 5.7-6.8 0-.7.6-1.4 1.4-1.6.8-.2 11.6-10.3 24-22.6l22.6-22.4-6.5-8.1c-11.6-14.5-19.8-34.8-21.2-52.3l-.6-8.4h-44.3l-1.2 9.9zM385 576c0 .5-.4 1-1 1-.5 0-1-.5-1-1 0-.6.5-1 1-1 .6 0 1 .4 1 1zM610.7 522.4c-1.4 17.2-9.6 37.8-20.7 51.6-3.3 4.1-6 7.7-6 8 0 .8 92.5 93 93.3 93 .4 0 .7-22.3.7-49.5V576l-5.4-8.1c-9.1-13.5-15-30.3-16.3-46.2l-.6-7.7h-44.4l-.6 8.4zM641 576c0 .5-.4 1-1 1-.5 0-1-.5-1-1 0-.6.5-1 1-1 .6 0 1 .4 1 1zM853.2 523.8c-2.7 23.2-12.7 43.5-29 59.4-39.2 38.2-99.7 38.1-139.4-.2-2.8-2.8-5.2-5-5.2-5-.1 0 0 21.5.2 47.7.1 34.2.5 48.4 1.4 50.1l1.2 2.2h102.7c79.6-.1 102.9-.3 103.6-1.3 1.1-1.5 4.2-8.8 8.2-19.5l3.2-8.2-.3-67.3-.3-67.2-22.6-.3-22.5-.2-1.2 9.8zm44.2 51c.2.4.1 1.4-.4 2.1-1 1.7-3.1.5-2.3-1.4.6-1.6 1.9-2 2.7-.7zM705 640c0 .5-.4 1-1 1-.5 0-1-.5-1-1 0-.6.5-1 1-1 .6 0 1 .4 1 1zm64 0c0 .5-.4 1-1 1-.5 0-1-.5-1-1 0-.6.5-1 1-1 .6 0 1 .4 1 1zm64 0c0 .5-.4 1-1 1-.5 0-1-.5-1-1 0-.6.5-1 1-1 .6 0 1 .4 1 1zm64 0c0 .5-.4 1-1 1-.5 0-1-.5-1-1 0-.6.5-1 1-1 .6 0 1 .4 1 1zM902.7 514.7c-.4.3-.7 28.5-.7 62.6 0 35 .4 61.7.9 61.1 2.6-2.8 10.1-32.1 14.2-55.4 3.2-18.4 4.3-28.3 6.5-60.3l.7-8.7h-10.5c-5.8 0-10.8.3-11.1.7zM437.2 588.7c-2.2 2.7-22.7 23.4-45.6 46.2-22.8 22.8-41.2 41.9-40.9 42.3.2.5 36.4.8 80.4.7l79.9-.2v-21.6c0-11.9.3-26.6.6-32.7l.7-11.1-7.9-.7c-21.2-1.7-41.1-10-57.4-23.7-2.6-2.1-4.9-3.9-5.2-3.9-.3 0-2.4 2.1-4.6 4.7zM449 640c0 .5-.4 1-1 1-.5 0-1-.5-1-1 0-.6.5-1 1-1 .6 0 1 .4 1 1zM576.2 588.5c-15.7 13.2-35.2 21.2-55.7 23.1l-7.1.6.4 31.7c.2 17.4.5 32.1.7 32.7.4 1.3 160.5 2 160.5.8 0-.9-92.2-93.4-93-93.4-.3 0-2.9 2-5.8 4.5zm.8 51.5c0 .5-.4 1-1 1-.5 0-1-.5-1-1 0-.6.5-1 1-1 .6 0 1 .4 1 1zM137 681.2c0 1.9 18.4 36.8 25 47.3 12.8 20.6 27.4 40 29.1 38.9.5-.3.9-.2.8.3-.1.4-.1 1.3 0 2 .2 2.4 26.9 32.3 28.8 32.3.5 0 4.6-3.7 9.1-8.3 4.5-4.5 8.8-8.7 9.4-9.3l42-42c22.4-22.5 45.2-45.3 50.7-50.8 5.6-5.4 10.1-10.3 10.1-10.7 0-.5-44.9-.9-102.5-.9-75.9 0-102.5.3-102.5 1.2zm56 22.8c0 .5-.4 1-1 1-.5 0-1-.5-1-1 0-.6.5-1 1-1 .6 0 1 .4 1 1zm64 0c0 .5-.4 1-1 1-.5 0-1-.5-1-1 0-.6.5-1 1-1 .6 0 1 .4 1 1zM348.8 681.4c-1.7 1.2-1.8 7.7-1.8 104.4V889l2.8 1.3c1.5.8 7.7 3.3 13.9 5.6l11.1 4.1 68.4-.2 68.3-.3V822c0-42.6-.1-92-.3-109.8l-.3-32.2h-80.2c-64.8.1-80.5.3-81.9 1.4zM385 704c0 .5-.4 1-1 1-.5 0-1-.5-1-1 0-.6.5-1 1-1 .6 0 1 .4 1 1zm64 0c0 .5-.4 1-1 1-.5 0-1-.5-1-1 0-.6.5-1 1-1 .6 0 1 .4 1 1zm-64 64c0 .5-.5 1-1.1 1-.5 0-.7-.5-.4-1 .3-.6.8-1 1.1-1 .2 0 .4.4.4 1zm64 0c0 .5-.5 1-1.1 1-.5 0-.7-.5-.4-1 .3-.6.8-1 1.1-1 .2 0 .4.4.4 1zm0 128c0 .5-.4 1-1 1-.5 0-1-.5-1-1 0-.6.5-1 1-1 .6 0 1 .4 1 1zM514 789.9v109.8l67.6.2 67.6.1 12.1-4.5c6.7-2.6 13.2-5.3 14.4-6.1l2.3-1.4V785.4c0-96.8-.1-102.7-1.7-104-1.5-1.1-16.7-1.3-82-1.4H514v109.9zm63-85.9c0 .5-.4 1-1 1-.5 0-1-.5-1-1 0-.6.5-1 1-1 .6 0 1 .4 1 1zm64 0c0 .5-.4 1-1 1-.5 0-1-.5-1-1 0-.6.5-1 1-1 .6 0 1 .4 1 1zm-64 64c0 .5-.5 1-1.1 1-.5 0-.7-.5-.4-1 .3-.6.8-1 1.1-1 .2 0 .4.4.4 1zm64 0c0 .5-.5 1-1.1 1-.5 0-.7-.5-.4-1 .3-.6.8-1 1.1-1 .2 0 .4.4.4 1zm-64 128c0 .5-.4 1-1 1-.5 0-1-.5-1-1 0-.6.5-1 1-1 .6 0 1 .4 1 1zM683 680.7c0 .5 27.2 27.9 60.3 61.1l60.4 60.3 7.6-7.8c7.9-8.1 20.7-23.2 20.7-24.3 0-.4 1.8-2.5 3.9-4.8 4.9-5.1 16.2-21 25.4-35.7 6.8-10.7 23.8-42.7 25.2-47.2l.6-2.3h-102c-56.2 0-102.1.3-102.1.7zm86 23.3c0 .5-.4 1-1 1-.5 0-1-.5-1-1 0-.6.5-1 1-1 .6 0 1 .4 1 1zm64 0c0 .5-.4 1-1 1-.5 0-1-.5-1-1 0-.6.5-1 1-1 .6 0 1 .4 1 1zM291 735.2c-28.3 28.6-55.2 55.6-59.7 60-4.6 4.5-8.3 8.5-8.3 9 0 1.9 29 27.7 31.3 27.9.7.1 1.6.1 2 0 .5-.1.6.3.2.8-1.4 2.3 31.3 25.4 53.5 37.7 17.5 9.8 33.8 17.6 35 16.9 1.3-.8 1.3-20.1-.1-22.6-.7-1.5-.7-2.4.1-3.4 1.7-2 .5-178-1.3-178.1-.6-.1-24.4 23.3-52.7 51.8zM680 785c0 82.6.3 102 1.3 102 1.8 0 26.9-12.9 38.7-19.8 21.1-12.4 48.7-32.3 47.5-34.2-.4-.6.3-1 1.4-1 2.1 0 12.9-8.7 25.5-20.7l7.8-7.5-60.3-60.4c-33.2-33.2-60.7-60.4-61.2-60.4-.4 0-.7 45.9-.7 102zm25-17c0 .5-.5 1-1.1 1-.5 0-.7-.5-.4-1 .3-.6.8-1 1.1-1 .2 0 .4.4.4 1zM384 902.5c0 2.2 38 11.9 60.7 15.6 18.8 3 41.6 5.2 55.3 5.3l11.5.1.3-9.4c.2-6-.1-9.8-.9-10.7-1-1.2-11.4-1.4-64-1.4-34.6 0-62.9.2-62.9.5zM514 913.1v11.1l11.8-.5c16.3-.8 37.4-3 53.5-5.6 22.7-3.7 60.7-13.4 60.7-15.6 0-.3-28.3-.5-63-.5h-63v11.1z"/></svg>